<?xml version="1.0" standalone="no"?>
<!DOCTYPE svg PUBLIC "-//W3C//DTD SVG 20010904//EN"
 "http://www.w3.org/TR/2001/REC-SVG-20010904/DTD/svg10.dtd">
<svg version="1.0" xmlns="http://www.w3.org/2000/svg"
 width="992.000000pt" height="992.000000pt" viewBox="0 0 992.000000 992.000000"
 preserveAspectRatio="xMidYMid meet">
<metadata>
Created by potrace 1.14, written by Peter Selinger 2001-2017
</metadata>
<g transform="translate(0.000000,992.000000) scale(0.100000,-0.100000)"
fill="#000000" stroke="none">
<path d="M635 9649 c-202 -11 -330 -75 -458 -228 -16 -20 -17 -95 -17 -1265
l0 -1244 33 -39 c62 -74 98 -104 177 -147 44 -23 132 -54 180 -62 51 -9 3157
-9 3205 0 102 18 226 77 294 141 20 19 39 35 44 35 4 0 7 4 7 9 0 6 12 23 26
38 31 34 101 175 109 223 4 19 10 58 13 85 12 90 7 1944 -5 1956 -7 7 -9 17
-7 24 11 27 -84 244 -99 228 -4 -3 -7 0 -7 8 0 19 -91 107 -150 146 -50 33
-123 64 -190 82 -34 9 -413 13 -1540 14 -822 1 -1549 -1 -1615 -4z"/>
<path d="M6067 9653 c-1 -1 -29 -2 -62 -4 -83 -3 -255 -58 -255 -81 0 -4 -6
-8 -13 -8 -22 0 -100 -69 -160 -141 -34 -41 -89 -156 -107 -224 -11 -41 -14
-450 -15 -2240 -1 -1204 2 -2195 6 -2200 4 -6 10 -26 12 -45 3 -19 6 -36 7
-37 2 -2 3 -6 4 -10 1 -5 11 -29 23 -55 56 -123 160 -230 278 -288 17 -8 33
-19 37 -25 4 -5 8 -7 8 -3 0 4 12 3 28 -3 83 -33 129 -34 1707 -33 1500 2
1600 4 1680 28 6 2 12 4 15 4 32 2 238 144 240 164 0 4 11 18 24 32 50 55 105
181 122 281 9 53 11 4273 2 4350 -4 33 -9 67 -11 75 -2 8 -7 29 -12 45 -10 39
-86 185 -97 185 -4 0 -8 7 -8 15 0 8 -3 15 -7 15 -5 0 -26 17 -48 38 -53 51
-118 93 -184 121 -62 26 -78 30 -146 37 -43 5 -3064 12 -3068 7z"/>
<path d="M590 5452 c-53 -5 -170 -41 -219 -69 -75 -42 -127 -85 -183 -152
l-28 -33 0 -2443 0 -2443 27 -34 c57 -68 120 -119 193 -156 30 -15 57 -27 60
-28 3 0 12 -4 20 -7 64 -27 154 -29 1680 -29 866 -1 1589 1 1605 4 62 11 155
41 155 50 0 5 4 7 8 4 9 -5 97 49 130 79 61 56 102 101 102 112 0 7 4 13 9 13
10 0 78 146 86 186 3 16 9 43 12 59 3 17 6 1004 6 2195 0 2039 -1 2169 -18
2235 -18 74 -87 219 -98 208 -4 -3 -7 0 -7 8 0 14 -47 66 -100 110 -36 30
-139 89 -155 89 -8 0 -16 4 -19 9 -5 8 -51 19 -116 28 -31 5 -3101 9 -3150 5z"/>
<path d="M6007 3053 c-1 0 -22 -3 -47 -6 -81 -10 -207 -64 -277 -120 -39 -32
-113 -113 -113 -124 0 -7 -5 -13 -10 -13 -20 0 -107 -210 -93 -224 3 -2 1 -11
-3 -18 -11 -16 -13 -1991 -3 -1998 4 -3 9 -18 10 -35 2 -16 9 -41 16 -54 7
-14 10 -28 7 -33 -3 -4 0 -8 5 -8 6 0 11 -6 11 -13 0 -18 68 -122 106 -163 58
-62 195 -150 247 -158 7 -1 17 -4 22 -8 6 -3 35 -9 65 -14 90 -12 3146 -12
3205 1 28 6 55 12 60 13 78 15 187 81 267 162 87 88 148 207 165 325 8 53 8
1942 0 1980 -28 136 -79 237 -166 327 -36 37 -71 68 -78 68 -7 0 -13 3 -13 8
0 19 -186 95 -250 101 -21 2 -3131 6 -3133 4z"/>
</g>
</svg>
